<svg width="1161" height="671" viewBox="0 0 1161 671" fill="none" xmlns="http://www.w3.org/2000/svg">
<g filter="url(#filter0_d_4_24)">
<path d="M177.711 601.67C59.2535 552.247 350.474 322.067 350.474 322.067C350.474 322.067 401.175 570.954 293.644 606.216C250.59 620.335 219.527 619.117 177.711 601.67Z" fill="#F59E0B"/>
</g>
<g filter="url(#filter1_d_4_24)">
<path d="M30.1705 399.855C-18.6438 281.145 350.042 324.308 350.042 324.308C350.042 324.308 209.903 536.149 108.933 485.047C68.506 464.587 47.4021 441.76 30.1705 399.855Z" fill="#D97706"/>
</g>
<g filter="url(#filter2_d_4_24)">
<path d="M69.0124 150.385C118.436 31.9277 348.616 323.148 348.616 323.148C348.616 323.148 99.7282 373.849 64.466 266.318C50.3476 223.265 51.5658 192.201 69.0124 150.385Z" fill="#B45309"/>
</g>
<g filter="url(#filter3_d_4_24)">
<path d="M274.782 4.45223C393.491 -44.3621 350.329 324.324 350.329 324.324C350.329 324.324 138.488 184.184 189.59 83.2145C210.05 42.7877 232.877 21.6839 274.782 4.45223Z" fill="#92400E"/>
</g>
<path d="M466.501 246.073C487.024 246.073 502.918 250.317 514.183 258.804C525.602 267.291 531.311 280.021 531.311 296.995C531.311 314.741 525.602 328.089 514.183 337.039C502.764 345.834 487.564 350.232 468.584 350.232H449.836V406.015H419.282V246.073H466.501ZM466.27 327.317C477.226 327.317 485.481 325.08 491.036 320.605C496.592 315.976 499.369 308.106 499.369 296.995C499.369 278.015 488.336 268.525 466.27 268.525H449.836V327.317H466.27ZM611.002 280.33C615.477 280.33 619.566 280.87 623.27 281.95L618.177 310.652C614.474 309.726 610.848 309.263 607.299 309.263C600.046 309.263 594.337 311.886 590.17 317.133C586.004 322.225 582.686 330.095 580.217 340.742V406.015H550.59V283.57H576.282L579.06 307.643C581.992 298.847 586.235 292.135 591.79 287.505C597.346 282.722 603.749 280.33 611.002 280.33ZM684.673 280.098C702.727 280.098 716.769 285.885 726.799 297.458C736.984 308.877 742.076 324.617 742.076 344.677C742.076 357.485 739.761 368.827 735.132 378.702C730.503 388.424 723.868 395.985 715.226 401.386C706.585 406.787 696.323 409.487 684.441 409.487C666.387 409.487 652.268 403.778 642.083 392.359C631.899 380.786 626.807 364.892 626.807 344.677C626.807 331.869 629.121 320.605 633.751 310.883C638.38 301.162 645.015 293.601 653.657 288.2C662.452 282.799 672.791 280.098 684.673 280.098ZM684.673 302.551C666.927 302.551 658.054 316.593 658.054 344.677C658.054 359.182 660.215 369.907 664.535 376.851C669.01 383.64 675.646 387.035 684.441 387.035C693.237 387.035 699.795 383.563 704.116 376.619C708.591 369.675 710.828 359.028 710.828 344.677C710.828 330.326 708.591 319.756 704.116 312.966C699.795 306.023 693.314 302.551 684.673 302.551ZM833.27 280.098C848.701 280.098 860.12 285.731 867.526 296.995C874.933 308.26 878.637 324.077 878.637 344.446C878.637 357.099 876.708 368.364 872.85 378.24C869.147 387.961 863.592 395.599 856.185 401.155C848.932 406.71 840.291 409.487 830.261 409.487C817.299 409.487 807.037 405.012 799.476 396.062V453.234L769.848 456.475V283.57H795.772L797.393 298.616C802.176 292.443 807.654 287.814 813.827 284.728C819.999 281.642 826.48 280.098 833.27 280.098ZM821.928 386.804C839.056 386.804 847.62 372.762 847.62 344.677C847.62 329.709 845.692 318.907 841.834 312.272C837.976 305.637 832.189 302.319 824.474 302.319C819.536 302.319 814.907 303.862 810.586 306.948C806.265 309.88 802.562 313.892 799.476 318.985V374.073C805.185 382.56 812.669 386.804 821.928 386.804ZM1008.19 341.9C1008.19 343.443 1007.96 347.455 1007.49 353.936H930.648C931.573 365.818 934.66 374.305 939.906 379.397C945.153 384.489 952.097 387.035 960.738 387.035C966.139 387.035 971.231 386.186 976.015 384.489C980.798 382.637 985.89 379.86 991.291 376.156L1003.56 393.053C989.98 404.009 974.857 409.487 958.192 409.487C939.52 409.487 925.092 403.778 914.908 392.359C904.878 380.94 899.863 365.355 899.863 345.603C899.863 333.104 902.023 321.916 906.344 312.041C910.664 302.01 916.914 294.218 925.092 288.663C933.271 282.953 942.992 280.098 954.257 280.098C971.385 280.098 984.656 285.576 994.069 296.532C1003.48 307.334 1008.19 322.457 1008.19 341.9ZM978.792 333.335C978.792 311.886 970.845 301.162 954.951 301.162C947.699 301.162 941.989 303.862 937.823 309.263C933.811 314.51 931.419 322.997 930.648 334.724H978.792V333.335ZM1063.7 409.487C1054.29 409.487 1046.88 406.787 1041.48 401.386C1036.23 395.831 1033.61 388.038 1033.61 378.008V234.5L1063.24 231.259V377.082C1063.24 382.792 1065.55 385.646 1070.18 385.646C1072.5 385.646 1074.81 385.261 1077.12 384.489L1083.37 405.321C1077.2 408.098 1070.64 409.487 1063.7 409.487ZM1131.96 409.487C1122.55 409.487 1115.14 406.787 1109.74 401.386C1104.5 395.831 1101.87 388.038 1101.87 378.008V234.5L1131.5 231.259V377.082C1131.5 382.792 1133.82 385.646 1138.45 385.646C1140.76 385.646 1143.07 385.261 1145.39 384.489L1151.64 405.321C1145.47 408.098 1138.91 409.487 1131.96 409.487Z" fill="white"/>
<defs>
<filter id="filter0_d_4_24" x="146.158" y="322.067" width="219.474" height="303.457" filterUnits="userSpaceOnUse" color-interpolation-filters="sRGB">
<feFlood flood-opacity="0" result="BackgroundImageFix"/>
<feColorMatrix in="SourceAlpha" type="matrix" values="0 0 0 0 0 0 0 0 0 0 0 0 0 0 0 0 0 0 127 0" result="hardAlpha"/>
<feOffset dy="6.42958"/>
<feGaussianBlur stdDeviation="1.60739"/>
<feComposite in2="hardAlpha" operator="out"/>
<feColorMatrix type="matrix" values="0 0 0 0 0 0 0 0 0 0 0 0 0 0 0 0 0 0 0.25 0"/>
<feBlend mode="normal" in2="BackgroundImageFix" result="effect1_dropShadow_4_24"/>
<feBlend mode="normal" in="SourceGraphic" in2="effect1_dropShadow_4_24" result="shape"/>
</filter>
<filter id="filter1_d_4_24" x="22.5035" y="316.657" width="330.753" height="185.989" filterUnits="userSpaceOnUse" color-interpolation-filters="sRGB">
<feFlood flood-opacity="0" result="BackgroundImageFix"/>
<feColorMatrix in="SourceAlpha" type="matrix" values="0 0 0 0 0 0 0 0 0 0 0 0 0 0 0 0 0 0 127 0" result="hardAlpha"/>
<feOffset dy="6.42958"/>
<feGaussianBlur stdDeviation="1.60739"/>
<feComposite in2="hardAlpha" operator="out"/>
<feColorMatrix type="matrix" values="0 0 0 0 0 0 0 0 0 0 0 0 0 0 0 0 0 0 0.25 0"/>
<feBlend mode="normal" in2="BackgroundImageFix" result="effect1_dropShadow_4_24"/>
<feBlend mode="normal" in="SourceGraphic" in2="effect1_dropShadow_4_24" result="shape"/>
</filter>
<filter id="filter2_d_4_24" x="51.5888" y="122.047" width="300.242" height="222.688" filterUnits="userSpaceOnUse" color-interpolation-filters="sRGB">
<feFlood flood-opacity="0" result="BackgroundImageFix"/>
<feColorMatrix in="SourceAlpha" type="matrix" values="0 0 0 0 0 0 0 0 0 0 0 0 0 0 0 0 0 0 127 0" result="hardAlpha"/>
<feOffset dy="6.42958"/>
<feGaussianBlur stdDeviation="1.60739"/>
<feComposite in2="hardAlpha" operator="out"/>
<feColorMatrix type="matrix" values="0 0 0 0 0 0 0 0 0 0 0 0 0 0 0 0 0 0 0.25 0"/>
<feBlend mode="normal" in2="BackgroundImageFix" result="effect1_dropShadow_4_24"/>
<feBlend mode="normal" in="SourceGraphic" in2="effect1_dropShadow_4_24" result="shape"/>
</filter>
<filter id="filter3_d_4_24" x="178.421" y="0" width="182.774" height="333.968" filterUnits="userSpaceOnUse" color-interpolation-filters="sRGB">
<feFlood flood-opacity="0" result="BackgroundImageFix"/>
<feColorMatrix in="SourceAlpha" type="matrix" values="0 0 0 0 0 0 0 0 0 0 0 0 0 0 0 0 0 0 127 0" result="hardAlpha"/>
<feOffset dy="6.42958"/>
<feGaussianBlur stdDeviation="1.60739"/>
<feComposite in2="hardAlpha" operator="out"/>
<feColorMatrix type="matrix" values="0 0 0 0 0 0 0 0 0 0 0 0 0 0 0 0 0 0 0.25 0"/>
<feBlend mode="normal" in2="BackgroundImageFix" result="effect1_dropShadow_4_24"/>
<feBlend mode="normal" in="SourceGraphic" in2="effect1_dropShadow_4_24" result="shape"/>
</filter>
</defs>
</svg>
