<svg width="153" height="47" viewBox="0 0 153 47" fill="none" xmlns="http://www.w3.org/2000/svg">
<path d="M18.168 25.568C18.168 22.656 17.448 20.416 16.008 18.848C14.568 17.28 12.648 16.496 10.248 16.496C8.904 16.496 7.848 16.544 7.08 16.64C6.344 16.736 5.752 16.848 5.304 16.976V32.72C5.848 33.168 6.632 33.6 7.656 34.016C8.68 34.432 9.8 34.64 11.016 34.64C12.296 34.64 13.384 34.416 14.28 33.968C15.208 33.488 15.96 32.848 16.536 32.048C17.112 31.216 17.528 30.256 17.784 29.168C18.04 28.048 18.168 26.848 18.168 25.568ZM22.824 25.568C22.824 27.456 22.568 29.2 22.056 30.8C21.576 32.4 20.856 33.776 19.896 34.928C18.936 36.08 17.752 36.976 16.344 37.616C14.968 38.256 13.384 38.576 11.592 38.576C10.152 38.576 8.872 38.384 7.752 38C6.664 37.616 5.848 37.248 5.304 36.896V46.88H0.84V13.808C1.896 13.552 3.208 13.28 4.776 12.992C6.376 12.672 8.216 12.512 10.296 12.512C12.216 12.512 13.944 12.816 15.48 13.424C17.016 14.032 18.328 14.896 19.416 16.016C20.504 17.136 21.336 18.512 21.912 20.144C22.52 21.744 22.824 23.552 22.824 25.568ZM38.3216 12.512C38.7056 12.512 39.1376 12.544 39.6176 12.608C40.1296 12.64 40.6256 12.704 41.1056 12.8C41.5856 12.864 42.0176 12.944 42.4016 13.04C42.8176 13.104 43.1216 13.168 43.3136 13.232L42.5456 17.12C42.1936 16.992 41.6016 16.848 40.7696 16.688C39.9696 16.496 38.9296 16.4 37.6496 16.4C36.8176 16.4 35.9856 16.496 35.1536 16.688C34.3536 16.848 33.8256 16.96 33.5696 17.024V38H29.1056V14.096C30.1616 13.712 31.4736 13.36 33.0416 13.04C34.6096 12.688 36.3696 12.512 38.3216 12.512ZM69.6533 25.52C69.6533 27.504 69.3653 29.296 68.7893 30.896C68.2133 32.496 67.3973 33.872 66.3413 35.024C65.3173 36.176 64.0853 37.072 62.6453 37.712C61.2053 38.32 59.6373 38.624 57.9413 38.624C56.2453 38.624 54.6773 38.32 53.2373 37.712C51.7973 37.072 50.5493 36.176 49.4933 35.024C48.4693 33.872 47.6693 32.496 47.0933 30.896C46.5173 29.296 46.2293 27.504 46.2293 25.52C46.2293 23.568 46.5173 21.792 47.0933 20.192C47.6693 18.56 48.4693 17.168 49.4933 16.016C50.5493 14.864 51.7973 13.984 53.2373 13.376C54.6773 12.736 56.2453 12.416 57.9413 12.416C59.6373 12.416 61.2053 12.736 62.6453 13.376C64.0853 13.984 65.3173 14.864 66.3413 16.016C67.3973 17.168 68.2133 18.56 68.7893 20.192C69.3653 21.792 69.6533 23.568 69.6533 25.52ZM64.9973 25.52C64.9973 22.704 64.3573 20.48 63.0773 18.848C61.8293 17.184 60.1173 16.352 57.9413 16.352C55.7653 16.352 54.0373 17.184 52.7573 18.848C51.5093 20.48 50.8853 22.704 50.8853 25.52C50.8853 28.336 51.5093 30.576 52.7573 32.24C54.0373 33.872 55.7653 34.688 57.9413 34.688C60.1173 34.688 61.8293 33.872 63.0773 32.24C64.3573 30.576 64.9973 28.336 64.9973 25.52ZM93.2618 25.568C93.2618 22.656 92.5418 20.416 91.1018 18.848C89.6618 17.28 87.7418 16.496 85.3418 16.496C83.9978 16.496 82.9418 16.544 82.1738 16.64C81.4378 16.736 80.8458 16.848 80.3978 16.976V32.72C80.9418 33.168 81.7258 33.6 82.7498 34.016C83.7738 34.432 84.8938 34.64 86.1098 34.64C87.3898 34.64 88.4778 34.416 89.3738 33.968C90.3018 33.488 91.0538 32.848 91.6298 32.048C92.2058 31.216 92.6218 30.256 92.8778 29.168C93.1338 28.048 93.2618 26.848 93.2618 25.568ZM97.9178 25.568C97.9178 27.456 97.6618 29.2 97.1498 30.8C96.6698 32.4 95.9498 33.776 94.9898 34.928C94.0298 36.08 92.8458 36.976 91.4378 37.616C90.0618 38.256 88.4778 38.576 86.6858 38.576C85.2458 38.576 83.9658 38.384 82.8458 38C81.7578 37.616 80.9418 37.248 80.3978 36.896V46.88H75.9338V13.808C76.9898 13.552 78.3018 13.28 79.8698 12.992C81.4698 12.672 83.3098 12.512 85.3898 12.512C87.3098 12.512 89.0378 12.816 90.5738 13.424C92.1098 14.032 93.4218 14.896 94.5098 16.016C95.5978 17.136 96.4298 18.512 97.0058 20.144C97.6138 21.744 97.9178 23.552 97.9178 25.568ZM102.807 25.568C102.807 23.36 103.127 21.44 103.767 19.808C104.407 18.144 105.255 16.768 106.311 15.68C107.367 14.592 108.583 13.776 109.959 13.232C111.335 12.688 112.743 12.416 114.183 12.416C117.543 12.416 120.119 13.472 121.911 15.584C123.703 17.664 124.599 20.848 124.599 25.136C124.599 25.328 124.599 25.584 124.599 25.904C124.599 26.192 124.583 26.464 124.551 26.72H107.463C107.655 29.312 108.407 31.28 109.719 32.624C111.031 33.968 113.079 34.64 115.863 34.64C117.431 34.64 118.743 34.512 119.799 34.256C120.887 33.968 121.703 33.696 122.247 33.44L122.871 37.184C122.327 37.472 121.367 37.776 119.991 38.096C118.647 38.416 117.111 38.576 115.383 38.576C113.207 38.576 111.319 38.256 109.719 37.616C108.151 36.944 106.855 36.032 105.831 34.88C104.807 33.728 104.039 32.368 103.527 30.8C103.047 29.2 102.807 27.456 102.807 25.568ZM119.943 23.12C119.975 21.104 119.463 19.456 118.407 18.176C117.383 16.864 115.959 16.208 114.135 16.208C113.111 16.208 112.199 16.416 111.399 16.832C110.631 17.216 109.975 17.728 109.431 18.368C108.887 19.008 108.455 19.744 108.135 20.576C107.847 21.408 107.655 22.256 107.559 23.12H119.943ZM138.5 38.48C135.748 38.416 133.796 37.824 132.644 36.704C131.492 35.584 130.916 33.84 130.916 31.472V1.52L135.38 0.751999V30.752C135.38 31.488 135.444 32.096 135.572 32.576C135.7 33.056 135.908 33.44 136.196 33.728C136.484 34.016 136.868 34.24 137.348 34.4C137.828 34.528 138.42 34.64 139.124 34.736L138.5 38.48ZM151.625 38.48C148.873 38.416 146.921 37.824 145.769 36.704C144.617 35.584 144.041 33.84 144.041 31.472V1.52L148.505 0.751999V30.752C148.505 31.488 148.569 32.096 148.697 32.576C148.825 33.056 149.033 33.44 149.321 33.728C149.609 34.016 149.993 34.24 150.473 34.4C150.953 34.528 151.545 34.64 152.249 34.736L151.625 38.48Z" fill="white"/>
</svg>
